<svg width="154" height="105" viewBox="0 0 154 105" fill="none" xmlns="http://www.w3.org/2000/svg">
<path d="M41.926 9.64V12.604L38.078 14.112V45H32.774L12.754 15.204V40.58L16.862 42.14V45H5.11V42.14L8.958 40.58V14.112L5.11 12.604V9.64H14.262L34.23 39.384V14.112L30.122 12.604V9.64H41.926ZM59.5861 18.168C63.5728 18.168 66.7621 19.2773 69.1541 21.496C71.5808 23.68 72.7941 27.164 72.7941 31.948C72.7941 36.732 71.5808 40.2333 69.1541 42.452C66.7621 44.636 63.5728 45.728 59.5861 45.728C55.5994 45.728 52.3928 44.636 49.9661 42.452C47.5741 40.2333 46.3781 36.732 46.3781 31.948C46.3781 27.164 47.5741 23.68 49.9661 21.496C52.3928 19.2773 55.5994 18.168 59.5861 18.168ZM59.5861 21.912C57.5061 21.912 55.8421 22.2067 54.5941 22.796C53.3808 23.3853 52.4621 24.408 51.8381 25.864C51.2488 27.32 50.9541 29.348 50.9541 31.948C50.9541 34.548 51.2488 36.576 51.8381 38.032C52.4621 39.488 53.3808 40.5107 54.5941 41.1C55.8421 41.6893 57.5061 41.984 59.5861 41.984C61.6661 41.984 63.3128 41.6893 64.5261 41.1C65.7741 40.5107 66.6928 39.488 67.2821 38.032C67.9061 36.576 68.2181 34.548 68.2181 31.948C68.2181 29.348 67.9061 27.32 67.2821 25.864C66.6928 24.408 65.7741 23.3853 64.5261 22.796C63.3128 22.2067 61.6661 21.912 59.5861 21.912ZM89.634 45.416C86.306 45.416 83.914 44.74 82.458 43.388C81.0366 42.036 80.326 39.748 80.326 36.524V22.536H76.27V19.624L80.326 18.896L81.886 11.356H84.694V18.896L93.586 18.948V22.588L84.694 22.536V36.524C84.694 37.9453 84.8673 39.02 85.214 39.748C85.5606 40.476 86.1326 40.9787 86.93 41.256C87.7273 41.5333 88.8886 41.672 90.414 41.672C91.5926 41.672 92.8233 41.5507 94.106 41.308V44.948C92.858 45.26 91.3673 45.416 89.634 45.416ZM110.872 18.168C114.408 18.168 117.268 19.2773 119.452 21.496C121.67 23.68 122.78 26.9387 122.78 31.272V33.352H102.396C102.569 35.6747 102.985 37.46 103.644 38.708C104.337 39.9213 105.325 40.7707 106.608 41.256C107.925 41.7413 109.728 41.984 112.016 41.984C115.309 41.984 118.568 41.5853 121.792 40.788V44.532C120.44 44.8787 118.862 45.156 117.06 45.364C115.257 45.6067 113.541 45.728 111.912 45.728C107.301 45.728 103.8 44.688 101.408 42.608C99.0155 40.528 97.8195 36.9747 97.8195 31.948C97.8195 27.268 98.9982 23.8013 101.356 21.548C103.713 19.2947 106.885 18.168 110.872 18.168ZM110.612 21.912C107.908 21.912 105.932 22.5187 104.684 23.732C103.436 24.9453 102.69 26.9213 102.448 29.66H118.152C117.944 27.0947 117.233 25.1707 116.02 23.888C114.806 22.5707 113.004 21.912 110.612 21.912ZM141.279 30.232C143.671 30.6827 145.456 31.1853 146.635 31.74C147.814 32.2947 148.611 33.0227 149.027 33.924C149.443 34.7907 149.651 36.0213 149.651 37.616C149.651 39.592 149.287 41.1693 148.559 42.348C147.866 43.492 146.618 44.3413 144.815 44.896C143.047 45.4507 140.534 45.728 137.275 45.728C135.611 45.728 133.999 45.6413 132.439 45.468C130.879 45.3293 128.99 45.0693 126.771 44.688V37.2H129.891L131.399 41.62C133.236 41.932 135.247 42.088 137.431 42.088C139.58 42.088 141.192 41.984 142.267 41.776C143.342 41.5333 144.07 41.152 144.451 40.632C144.867 40.0773 145.075 39.28 145.075 38.24C145.075 37.304 144.884 36.6107 144.503 36.16C144.122 35.6747 143.55 35.328 142.787 35.12C142.059 34.912 140.776 34.6693 138.939 34.392L135.403 33.768C132.942 33.3173 131.087 32.8147 129.839 32.26C128.591 31.7053 127.707 30.96 127.187 30.024C126.702 29.0533 126.459 27.7013 126.459 25.968C126.459 24.0613 126.788 22.5533 127.447 21.444C128.14 20.3347 129.319 19.52 130.983 19C132.647 18.4453 134.987 18.168 138.003 18.168C141.019 18.168 144.59 18.5147 148.715 19.208V26.436H145.699L144.295 22.38C142.007 21.9987 139.84 21.808 137.795 21.808C135.992 21.808 134.606 21.9293 133.635 22.172C132.664 22.4147 131.988 22.796 131.607 23.316C131.226 23.836 131.035 24.5813 131.035 25.552C131.035 26.5227 131.243 27.2507 131.659 27.736C132.075 28.1867 132.751 28.5507 133.687 28.828C134.623 29.0707 136.252 29.3827 138.575 29.764C139.442 29.868 140.343 30.024 141.279 30.232Z" fill="black"/>
<path d="M13 63.5C13 63.5 152 42 145 70C138 98 10 66.5 34 90C58 113.5 124 98 124 98" stroke="black" stroke-width="3"/>
</svg>
